<svg xmlns="http://www.w3.org/2000/svg" width="80" height="70" fill="none" viewBox="0 0 80 70"><path fill="#556CA6" d="M24.4844 35H2.5C1.125 35 0 33.875 0 32.5V27.5C0 26.125 1.125 25 2.5 25H24.7187C27.2031 25 29.5312 23.2969 29.9375 20.8438C30.4531 17.7188 28.0469 15 25 15C22.7969 15 20.9219 16.4375 20.25 18.4219C19.9219 19.4063 18.9062 20 17.875 20H12.75C11.2187 20 9.98437 18.625 10.2656 17.125C11.6094 10.2344 17.7031 5.00001 24.9844 5.00001C33.9062 5.00001 41.0312 12.8281 39.8594 21.9688C38.9062 29.5313 32.0937 35 24.4844 35ZM2.5 40H55C64.3281 40 71.6875 48.5625 69.6562 58.2344C68.4687 63.8906 63.8906 68.4688 58.2344 69.6563C49.5781 71.4688 41.8125 65.7656 40.2812 57.8594C39.9844 56.3594 41.2344 55 42.75 55H47.875C48.9219 55 49.9219 55.5938 50.25 56.5781C50.9219 58.5625 52.7969 60 55 60C58.0312 60 60.4531 57.2813 59.9375 54.1563C59.5312 51.7031 57.2187 50 54.7187 50H2.5C1.125 50 0 48.875 0 47.5V42.5C0 41.125 1.125 40 2.5 40ZM62.5 35H38.0781C41.0937 32.4063 43.2656 28.9375 44.2969 25H62.5C66.6406 25 70 21.6406 70 17.5C70 13.3594 66.6406 10 62.5 10C59.7031 10 57.2969 11.5469 56 13.8125C55.5469 14.5938 54.6406 15 53.7344 15H48.4531C46.75 15 45.4844 13.3125 46.0625 11.7031C48.8437 3.79688 57.0781 -1.54687 66.2812 0.406258C72.7187 1.76563 78.0156 6.90626 79.5156 13.3281C82.1875 24.7656 73.5156 35 62.5 35Z"/></svg>